<svg id="visual" viewBox="0 0 960 300" width="960" height="300" xmlns="http://www.w3.org/2000/svg" xmlns:xlink="http://www.w3.org/1999/xlink" version="1.1"><rect x="0" y="0" width="960" height="300" fill="#000a11"></rect><path d="M0 208L137 173L274 176L411 184L549 153L686 197L823 185L960 165L960 301L823 301L686 301L549 301L411 301L274 301L137 301L0 301Z" fill="#fa7268"></path><path d="M0 218L137 226L274 218L411 182L549 213L686 205L823 200L960 205L960 301L823 301L686 301L549 301L411 301L274 301L137 301L0 301Z" fill="#f36567"></path><path d="M0 202L137 173L274 225L411 200L549 236L686 219L823 164L960 220L960 301L823 301L686 301L549 301L411 301L274 301L137 301L0 301Z" fill="#eb5967"></path><path d="M0 198L137 188L274 200L411 244L549 196L686 221L823 248L960 211L960 301L823 301L686 301L549 301L411 301L274 301L137 301L0 301Z" fill="#e34c67"></path><path d="M0 264L137 229L274 233L411 222L549 211L686 239L823 251L960 214L960 301L823 301L686 301L549 301L411 301L274 301L137 301L0 301Z" fill="#da3f67"></path><path d="M0 268L137 252L274 268L411 257L549 252L686 244L823 231L960 265L960 301L823 301L686 301L549 301L411 301L274 301L137 301L0 301Z" fill="#d03267"></path><path d="M0 279L137 274L274 287L411 288L549 268L686 271L823 266L960 268L960 301L823 301L686 301L549 301L411 301L274 301L137 301L0 301Z" fill="#c62368"></path></svg>