<svg id="visual" viewBox="0 0 960 300" width="960" height="300" xmlns="http://www.w3.org/2000/svg" xmlns:xlink="http://www.w3.org/1999/xlink" version="1.1"><rect x="0" y="0" width="960" height="300" fill="#000a11"></rect><path d="M0 116L10.7 120.2C21.3 124.3 42.7 132.7 64 136C85.3 139.3 106.7 137.7 128 139.8C149.3 142 170.7 148 192 154.2C213.3 160.3 234.7 166.7 256 168C277.3 169.3 298.7 165.7 320 167.8C341.3 170 362.7 178 384 179.3C405.3 180.7 426.7 175.3 448 174.7C469.3 174 490.7 178 512 175C533.3 172 554.7 162 576 154.5C597.3 147 618.7 142 640 141.8C661.3 141.7 682.7 146.3 704 151.3C725.3 156.3 746.7 161.7 768 160C789.3 158.3 810.7 149.7 832 147.3C853.3 145 874.7 149 896 157C917.3 165 938.7 177 949.3 183L960 189L960 301L949.3 301C938.7 301 917.3 301 896 301C874.7 301 853.3 301 832 301C810.7 301 789.3 301 768 301C746.7 301 725.3 301 704 301C682.7 301 661.3 301 640 301C618.7 301 597.3 301 576 301C554.7 301 533.3 301 512 301C490.7 301 469.3 301 448 301C426.7 301 405.3 301 384 301C362.7 301 341.3 301 320 301C298.7 301 277.3 301 256 301C234.7 301 213.3 301 192 301C170.7 301 149.3 301 128 301C106.7 301 85.3 301 64 301C42.7 301 21.3 301 10.7 301L0 301Z" fill="#fa7268"></path><path d="M0 167L10.7 166.2C21.3 165.3 42.7 163.7 64 164C85.3 164.3 106.7 166.7 128 171.8C149.3 177 170.7 185 192 185.2C213.3 185.3 234.7 177.7 256 169C277.3 160.3 298.7 150.7 320 153.7C341.3 156.7 362.7 172.3 384 177.8C405.3 183.3 426.7 178.7 448 177C469.3 175.3 490.7 176.7 512 172.8C533.3 169 554.7 160 576 159.7C597.3 159.3 618.7 167.7 640 167.3C661.3 167 682.7 158 704 156.2C725.3 154.3 746.7 159.7 768 160C789.3 160.3 810.7 155.7 832 152.5C853.3 149.3 874.7 147.7 896 152.2C917.3 156.7 938.7 167.3 949.3 172.7L960 178L960 301L949.3 301C938.7 301 917.3 301 896 301C874.7 301 853.3 301 832 301C810.7 301 789.3 301 768 301C746.7 301 725.3 301 704 301C682.7 301 661.3 301 640 301C618.7 301 597.3 301 576 301C554.7 301 533.3 301 512 301C490.7 301 469.3 301 448 301C426.7 301 405.3 301 384 301C362.7 301 341.3 301 320 301C298.7 301 277.3 301 256 301C234.7 301 213.3 301 192 301C170.7 301 149.3 301 128 301C106.7 301 85.3 301 64 301C42.7 301 21.3 301 10.7 301L0 301Z" fill="#f36567"></path><path d="M0 166L10.7 173.8C21.3 181.7 42.7 197.3 64 204.2C85.3 211 106.7 209 128 201.8C149.3 194.7 170.7 182.3 192 183.3C213.3 184.3 234.7 198.7 256 201.8C277.3 205 298.7 197 320 192.8C341.3 188.7 362.7 188.3 384 194C405.3 199.7 426.7 211.3 448 211.8C469.3 212.3 490.7 201.7 512 196C533.3 190.3 554.7 189.7 576 185.3C597.3 181 618.7 173 640 171C661.3 169 682.7 173 704 177C725.3 181 746.7 185 768 192.3C789.3 199.7 810.7 210.3 832 209C853.3 207.7 874.7 194.3 896 188.8C917.3 183.3 938.7 185.7 949.3 186.8L960 188L960 301L949.3 301C938.7 301 917.3 301 896 301C874.7 301 853.3 301 832 301C810.7 301 789.3 301 768 301C746.7 301 725.3 301 704 301C682.7 301 661.3 301 640 301C618.7 301 597.3 301 576 301C554.7 301 533.3 301 512 301C490.7 301 469.3 301 448 301C426.7 301 405.3 301 384 301C362.7 301 341.3 301 320 301C298.7 301 277.3 301 256 301C234.7 301 213.3 301 192 301C170.7 301 149.3 301 128 301C106.7 301 85.3 301 64 301C42.7 301 21.3 301 10.7 301L0 301Z" fill="#eb5967"></path><path d="M0 231L10.7 226C21.3 221 42.7 211 64 212.5C85.3 214 106.7 227 128 232.3C149.3 237.7 170.7 235.3 192 232.5C213.3 229.7 234.7 226.3 256 224.2C277.3 222 298.7 221 320 221.3C341.3 221.7 362.7 223.3 384 223C405.3 222.7 426.7 220.3 448 215C469.3 209.7 490.7 201.3 512 204.3C533.3 207.3 554.7 221.7 576 228.5C597.3 235.3 618.7 234.7 640 233.3C661.3 232 682.7 230 704 230.2C725.3 230.3 746.7 232.7 768 226.5C789.3 220.3 810.7 205.7 832 206.2C853.3 206.7 874.7 222.3 896 228.8C917.3 235.3 938.7 232.7 949.3 231.3L960 230L960 301L949.3 301C938.7 301 917.3 301 896 301C874.7 301 853.3 301 832 301C810.7 301 789.3 301 768 301C746.7 301 725.3 301 704 301C682.7 301 661.3 301 640 301C618.7 301 597.3 301 576 301C554.7 301 533.3 301 512 301C490.7 301 469.3 301 448 301C426.7 301 405.3 301 384 301C362.7 301 341.3 301 320 301C298.7 301 277.3 301 256 301C234.7 301 213.3 301 192 301C170.7 301 149.3 301 128 301C106.7 301 85.3 301 64 301C42.7 301 21.3 301 10.7 301L0 301Z" fill="#e34c67"></path><path d="M0 242L10.7 238.8C21.3 235.7 42.7 229.3 64 228.8C85.3 228.3 106.7 233.7 128 233.3C149.3 233 170.7 227 192 222.2C213.3 217.3 234.7 213.7 256 217.7C277.3 221.7 298.7 233.3 320 235.7C341.3 238 362.7 231 384 225.3C405.3 219.7 426.7 215.3 448 213.2C469.3 211 490.7 211 512 217.3C533.3 223.7 554.7 236.3 576 241.7C597.3 247 618.7 245 640 242.5C661.3 240 682.7 237 704 231.8C725.3 226.7 746.7 219.3 768 218.8C789.3 218.3 810.7 224.7 832 225.2C853.3 225.7 874.7 220.3 896 220.8C917.3 221.3 938.7 227.7 949.3 230.8L960 234L960 301L949.3 301C938.7 301 917.3 301 896 301C874.7 301 853.3 301 832 301C810.7 301 789.3 301 768 301C746.7 301 725.3 301 704 301C682.7 301 661.3 301 640 301C618.7 301 597.3 301 576 301C554.7 301 533.3 301 512 301C490.7 301 469.3 301 448 301C426.7 301 405.3 301 384 301C362.7 301 341.3 301 320 301C298.7 301 277.3 301 256 301C234.7 301 213.3 301 192 301C170.7 301 149.3 301 128 301C106.7 301 85.3 301 64 301C42.7 301 21.3 301 10.7 301L0 301Z" fill="#da3f67"></path><path d="M0 272L10.7 265.8C21.3 259.7 42.7 247.3 64 245.8C85.3 244.3 106.7 253.7 128 258C149.3 262.3 170.7 261.7 192 263.2C213.3 264.7 234.7 268.3 256 267C277.3 265.7 298.7 259.3 320 253.3C341.3 247.3 362.7 241.7 384 244.7C405.3 247.7 426.7 259.3 448 263.5C469.3 267.7 490.7 264.3 512 260.2C533.3 256 554.7 251 576 250.2C597.3 249.3 618.7 252.7 640 255.2C661.3 257.7 682.7 259.3 704 260.2C725.3 261 746.7 261 768 257.8C789.3 254.7 810.7 248.3 832 244.5C853.3 240.7 874.7 239.3 896 242.7C917.3 246 938.7 254 949.3 258L960 262L960 301L949.3 301C938.7 301 917.3 301 896 301C874.7 301 853.3 301 832 301C810.7 301 789.3 301 768 301C746.7 301 725.3 301 704 301C682.7 301 661.3 301 640 301C618.7 301 597.3 301 576 301C554.7 301 533.3 301 512 301C490.7 301 469.3 301 448 301C426.7 301 405.3 301 384 301C362.7 301 341.3 301 320 301C298.7 301 277.3 301 256 301C234.7 301 213.3 301 192 301C170.7 301 149.3 301 128 301C106.7 301 85.3 301 64 301C42.7 301 21.3 301 10.7 301L0 301Z" fill="#d03267"></path><path d="M0 260L10.7 260.3C21.3 260.7 42.7 261.3 64 264.3C85.3 267.3 106.7 272.7 128 272.7C149.3 272.7 170.7 267.3 192 264.5C213.3 261.7 234.7 261.3 256 265.7C277.3 270 298.7 279 320 278.7C341.3 278.3 362.7 268.7 384 266.7C405.3 264.7 426.7 270.3 448 271.7C469.3 273 490.7 270 512 268.7C533.3 267.3 554.7 267.7 576 266.3C597.3 265 618.7 262 640 265C661.3 268 682.7 277 704 280.5C725.3 284 746.7 282 768 281.7C789.3 281.3 810.7 282.7 832 284C853.3 285.3 874.7 286.7 896 283.7C917.3 280.7 938.7 273.3 949.3 269.7L960 266L960 301L949.3 301C938.7 301 917.3 301 896 301C874.7 301 853.3 301 832 301C810.7 301 789.3 301 768 301C746.7 301 725.3 301 704 301C682.7 301 661.3 301 640 301C618.7 301 597.3 301 576 301C554.7 301 533.3 301 512 301C490.7 301 469.3 301 448 301C426.7 301 405.3 301 384 301C362.7 301 341.3 301 320 301C298.7 301 277.3 301 256 301C234.7 301 213.3 301 192 301C170.7 301 149.3 301 128 301C106.7 301 85.3 301 64 301C42.7 301 21.3 301 10.7 301L0 301Z" fill="#c62368"></path></svg>