<svg id="visual" viewBox="0 0 960 300" width="960" height="300" xmlns="http://www.w3.org/2000/svg" xmlns:xlink="http://www.w3.org/1999/xlink" version="1.1"><rect x="0" y="0" width="960" height="300" fill="#000a11"></rect><path d="M0 159L10.7 159.5C21.3 160 42.7 161 64 152.5C85.3 144 106.7 126 128 121.8C149.3 117.7 170.7 127.3 192 137C213.3 146.7 234.7 156.3 256 161.8C277.3 167.3 298.7 168.7 320 169C341.3 169.3 362.7 168.7 384 165.2C405.3 161.7 426.7 155.3 448 153.7C469.3 152 490.7 155 512 152.7C533.3 150.3 554.7 142.7 576 139C597.3 135.3 618.7 135.7 640 131.2C661.3 126.7 682.7 117.3 704 121.2C725.3 125 746.7 142 768 141C789.3 140 810.7 121 832 120.2C853.3 119.3 874.7 136.7 896 148.7C917.3 160.7 938.7 167.3 949.3 170.7L960 174L960 0L949.3 0C938.7 0 917.3 0 896 0C874.7 0 853.3 0 832 0C810.7 0 789.3 0 768 0C746.7 0 725.3 0 704 0C682.7 0 661.3 0 640 0C618.7 0 597.3 0 576 0C554.7 0 533.3 0 512 0C490.7 0 469.3 0 448 0C426.7 0 405.3 0 384 0C362.7 0 341.3 0 320 0C298.7 0 277.3 0 256 0C234.7 0 213.3 0 192 0C170.7 0 149.3 0 128 0C106.7 0 85.3 0 64 0C42.7 0 21.3 0 10.7 0L0 0Z" fill="#fa7268"></path><path d="M0 122L10.7 115.7C21.3 109.3 42.7 96.7 64 91C85.3 85.3 106.7 86.7 128 95.3C149.3 104 170.7 120 192 130.5C213.3 141 234.7 146 256 144.3C277.3 142.7 298.7 134.3 320 133.2C341.3 132 362.7 138 384 132.5C405.3 127 426.7 110 448 103C469.3 96 490.7 99 512 101.2C533.3 103.3 554.7 104.7 576 106C597.3 107.3 618.7 108.7 640 108.2C661.3 107.7 682.7 105.3 704 103C725.3 100.7 746.7 98.3 768 96C789.3 93.7 810.7 91.3 832 100.2C853.3 109 874.7 129 896 138.5C917.3 148 938.7 147 949.3 146.5L960 146L960 0L949.3 0C938.7 0 917.3 0 896 0C874.7 0 853.3 0 832 0C810.7 0 789.3 0 768 0C746.7 0 725.3 0 704 0C682.7 0 661.3 0 640 0C618.7 0 597.3 0 576 0C554.7 0 533.3 0 512 0C490.7 0 469.3 0 448 0C426.7 0 405.3 0 384 0C362.7 0 341.3 0 320 0C298.7 0 277.3 0 256 0C234.7 0 213.3 0 192 0C170.7 0 149.3 0 128 0C106.7 0 85.3 0 64 0C42.7 0 21.3 0 10.7 0L0 0Z" fill="#f16367"></path><path d="M0 121L10.7 116.8C21.3 112.7 42.7 104.3 64 101C85.3 97.7 106.7 99.3 128 100.3C149.3 101.3 170.7 101.7 192 100.3C213.3 99 234.7 96 256 90.2C277.3 84.3 298.7 75.7 320 74.8C341.3 74 362.7 81 384 89.2C405.3 97.3 426.7 106.7 448 106.3C469.3 106 490.7 96 512 94.3C533.3 92.7 554.7 99.3 576 100.7C597.3 102 618.7 98 640 97.2C661.3 96.3 682.7 98.7 704 96.7C725.3 94.7 746.7 88.3 768 86C789.3 83.7 810.7 85.3 832 83.8C853.3 82.3 874.7 77.7 896 75C917.3 72.3 938.7 71.7 949.3 71.3L960 71L960 0L949.3 0C938.7 0 917.3 0 896 0C874.7 0 853.3 0 832 0C810.7 0 789.3 0 768 0C746.7 0 725.3 0 704 0C682.7 0 661.3 0 640 0C618.7 0 597.3 0 576 0C554.7 0 533.3 0 512 0C490.7 0 469.3 0 448 0C426.7 0 405.3 0 384 0C362.7 0 341.3 0 320 0C298.7 0 277.3 0 256 0C234.7 0 213.3 0 192 0C170.7 0 149.3 0 128 0C106.7 0 85.3 0 64 0C42.7 0 21.3 0 10.7 0L0 0Z" fill="#e85467"></path><path d="M0 70L10.7 67.8C21.3 65.7 42.7 61.3 64 59C85.3 56.7 106.7 56.3 128 55C149.3 53.7 170.7 51.3 192 50.7C213.3 50 234.7 51 256 59.5C277.3 68 298.7 84 320 86.3C341.3 88.7 362.7 77.3 384 75.5C405.3 73.7 426.7 81.3 448 80.5C469.3 79.7 490.7 70.3 512 68C533.3 65.7 554.7 70.3 576 74.2C597.3 78 618.7 81 640 79.3C661.3 77.7 682.7 71.3 704 69.3C725.3 67.3 746.7 69.7 768 69.3C789.3 69 810.7 66 832 68.2C853.3 70.3 874.7 77.7 896 75.5C917.3 73.3 938.7 61.7 949.3 55.8L960 50L960 0L949.3 0C938.7 0 917.3 0 896 0C874.7 0 853.3 0 832 0C810.7 0 789.3 0 768 0C746.7 0 725.3 0 704 0C682.7 0 661.3 0 640 0C618.7 0 597.3 0 576 0C554.7 0 533.3 0 512 0C490.7 0 469.3 0 448 0C426.7 0 405.3 0 384 0C362.7 0 341.3 0 320 0C298.7 0 277.3 0 256 0C234.7 0 213.3 0 192 0C170.7 0 149.3 0 128 0C106.7 0 85.3 0 64 0C42.7 0 21.3 0 10.7 0L0 0Z" fill="#de4467"></path><path d="M0 65L10.7 66.5C21.3 68 42.7 71 64 68C85.3 65 106.7 56 128 51.2C149.3 46.3 170.7 45.7 192 44.8C213.3 44 234.7 43 256 40.7C277.3 38.3 298.7 34.7 320 39.7C341.3 44.7 362.7 58.3 384 59.5C405.3 60.7 426.7 49.3 448 43.7C469.3 38 490.7 38 512 37.5C533.3 37 554.7 36 576 37C597.3 38 618.7 41 640 45.7C661.3 50.3 682.7 56.7 704 61.7C725.3 66.7 746.7 70.3 768 68.2C789.3 66 810.7 58 832 57.7C853.3 57.3 874.7 64.7 896 66.7C917.3 68.7 938.7 65.3 949.3 63.7L960 62L960 0L949.3 0C938.7 0 917.3 0 896 0C874.7 0 853.3 0 832 0C810.7 0 789.3 0 768 0C746.7 0 725.3 0 704 0C682.7 0 661.3 0 640 0C618.7 0 597.3 0 576 0C554.7 0 533.3 0 512 0C490.7 0 469.3 0 448 0C426.7 0 405.3 0 384 0C362.7 0 341.3 0 320 0C298.7 0 277.3 0 256 0C234.7 0 213.3 0 192 0C170.7 0 149.3 0 128 0C106.7 0 85.3 0 64 0C42.7 0 21.3 0 10.7 0L0 0Z" fill="#d23467"></path><path d="M0 33L10.7 34.5C21.3 36 42.7 39 64 41.2C85.3 43.3 106.7 44.7 128 40.5C149.3 36.3 170.7 26.7 192 23.7C213.3 20.7 234.7 24.3 256 25.5C277.3 26.7 298.7 25.3 320 27.2C341.3 29 362.7 34 384 32.3C405.3 30.7 426.7 22.3 448 21.7C469.3 21 490.7 28 512 33.3C533.3 38.7 554.7 42.3 576 42C597.3 41.7 618.7 37.3 640 36C661.3 34.7 682.7 36.3 704 38.5C725.3 40.7 746.7 43.3 768 41.3C789.3 39.3 810.7 32.7 832 28.5C853.3 24.3 874.7 22.7 896 26.2C917.3 29.7 938.7 38.3 949.3 42.7L960 47L960 0L949.3 0C938.7 0 917.3 0 896 0C874.7 0 853.3 0 832 0C810.7 0 789.3 0 768 0C746.7 0 725.3 0 704 0C682.7 0 661.3 0 640 0C618.7 0 597.3 0 576 0C554.7 0 533.3 0 512 0C490.7 0 469.3 0 448 0C426.7 0 405.3 0 384 0C362.7 0 341.3 0 320 0C298.7 0 277.3 0 256 0C234.7 0 213.3 0 192 0C170.7 0 149.3 0 128 0C106.7 0 85.3 0 64 0C42.7 0 21.3 0 10.7 0L0 0Z" fill="#c62368"></path></svg>