<svg id="visual" viewBox="0 0 960 300" width="960" height="300" xmlns="http://www.w3.org/2000/svg" xmlns:xlink="http://www.w3.org/1999/xlink" version="1.1"><rect x="0" y="0" width="960" height="300" fill="#000a11"></rect><path d="M0 183L14.5 176.7C29 170.3 58 157.7 87.2 154.5C116.3 151.3 145.7 157.7 174.8 160.7C204 163.7 233 163.3 262 164.8C291 166.3 320 169.7 349 163.8C378 158 407 143 436.2 137.5C465.3 132 494.7 136 523.8 142.8C553 149.7 582 159.3 611 159.3C640 159.3 669 149.7 698 148.3C727 147 756 154 785.2 153.8C814.3 153.7 843.7 146.3 872.8 141.2C902 136 931 133 945.5 131.5L960 130L960 301L945.5 301C931 301 902 301 872.8 301C843.7 301 814.3 301 785.2 301C756 301 727 301 698 301C669 301 640 301 611 301C582 301 553 301 523.8 301C494.7 301 465.3 301 436.2 301C407 301 378 301 349 301C320 301 291 301 262 301C233 301 204 301 174.8 301C145.7 301 116.3 301 87.2 301C58 301 29 301 14.5 301L0 301Z" fill="#fa7268"></path><path d="M0 141L14.5 141.7C29 142.3 58 143.7 87.2 148.3C116.3 153 145.7 161 174.8 161.3C204 161.7 233 154.3 262 149.8C291 145.3 320 143.7 349 149.2C378 154.7 407 167.3 436.2 171.8C465.3 176.3 494.7 172.7 523.8 172.2C553 171.7 582 174.3 611 169.7C640 165 669 153 698 150.8C727 148.7 756 156.3 785.2 158C814.3 159.7 843.7 155.3 872.8 157C902 158.7 931 166.3 945.5 170.2L960 174L960 301L945.5 301C931 301 902 301 872.8 301C843.7 301 814.3 301 785.2 301C756 301 727 301 698 301C669 301 640 301 611 301C582 301 553 301 523.8 301C494.7 301 465.3 301 436.2 301C407 301 378 301 349 301C320 301 291 301 262 301C233 301 204 301 174.8 301C145.7 301 116.3 301 87.2 301C58 301 29 301 14.5 301L0 301Z" fill="#f56967"></path><path d="M0 163L14.5 170.7C29 178.3 58 193.7 87.2 199.7C116.3 205.7 145.7 202.3 174.8 197.3C204 192.3 233 185.7 262 182.8C291 180 320 181 349 180.3C378 179.7 407 177.3 436.2 174C465.3 170.7 494.7 166.3 523.8 165C553 163.7 582 165.3 611 173C640 180.7 669 194.3 698 194.5C727 194.7 756 181.3 785.2 179.2C814.3 177 843.7 186 872.8 187.8C902 189.7 931 184.3 945.5 181.7L960 179L960 301L945.5 301C931 301 902 301 872.8 301C843.7 301 814.3 301 785.2 301C756 301 727 301 698 301C669 301 640 301 611 301C582 301 553 301 523.8 301C494.7 301 465.3 301 436.2 301C407 301 378 301 349 301C320 301 291 301 262 301C233 301 204 301 174.8 301C145.7 301 116.3 301 87.2 301C58 301 29 301 14.5 301L0 301Z" fill="#ef5f67"></path><path d="M0 179L14.5 183.2C29 187.3 58 195.7 87.2 202.3C116.3 209 145.7 214 174.8 209.3C204 204.7 233 190.3 262 185.3C291 180.3 320 184.7 349 188.2C378 191.7 407 194.3 436.2 193C465.3 191.7 494.7 186.3 523.8 189.7C553 193 582 205 611 205.3C640 205.7 669 194.3 698 191.7C727 189 756 195 785.2 199.7C814.3 204.3 843.7 207.7 872.8 211.2C902 214.7 931 218.3 945.5 220.2L960 222L960 301L945.5 301C931 301 902 301 872.8 301C843.7 301 814.3 301 785.2 301C756 301 727 301 698 301C669 301 640 301 611 301C582 301 553 301 523.8 301C494.7 301 465.3 301 436.2 301C407 301 378 301 349 301C320 301 291 301 262 301C233 301 204 301 174.8 301C145.7 301 116.3 301 87.2 301C58 301 29 301 14.5 301L0 301Z" fill="#e95667"></path><path d="M0 214L14.5 211.3C29 208.7 58 203.3 87.2 203C116.3 202.7 145.7 207.3 174.8 211C204 214.7 233 217.3 262 215.2C291 213 320 206 349 206.2C378 206.3 407 213.7 436.2 214.3C465.3 215 494.7 209 523.8 208.2C553 207.3 582 211.7 611 211C640 210.3 669 204.7 698 205.8C727 207 756 215 785.2 216.5C814.3 218 843.7 213 872.8 211.8C902 210.7 931 213.3 945.5 214.7L960 216L960 301L945.5 301C931 301 902 301 872.8 301C843.7 301 814.3 301 785.2 301C756 301 727 301 698 301C669 301 640 301 611 301C582 301 553 301 523.8 301C494.7 301 465.3 301 436.2 301C407 301 378 301 349 301C320 301 291 301 262 301C233 301 204 301 174.8 301C145.7 301 116.3 301 87.2 301C58 301 29 301 14.5 301L0 301Z" fill="#e34c67"></path><path d="M0 235L14.5 236.3C29 237.7 58 240.3 87.2 242.5C116.3 244.7 145.7 246.3 174.8 246.2C204 246 233 244 262 243.5C291 243 320 244 349 243.5C378 243 407 241 436.2 236.5C465.3 232 494.7 225 523.8 223.5C553 222 582 226 611 227.2C640 228.3 669 226.7 698 224.7C727 222.7 756 220.3 785.2 220.7C814.3 221 843.7 224 872.8 226.3C902 228.7 931 230.3 945.5 231.2L960 232L960 301L945.5 301C931 301 902 301 872.8 301C843.7 301 814.3 301 785.2 301C756 301 727 301 698 301C669 301 640 301 611 301C582 301 553 301 523.8 301C494.7 301 465.3 301 436.2 301C407 301 378 301 349 301C320 301 291 301 262 301C233 301 204 301 174.8 301C145.7 301 116.3 301 87.2 301C58 301 29 301 14.5 301L0 301Z" fill="#dc4267"></path><path d="M0 246L14.5 246.7C29 247.3 58 248.7 87.2 247.5C116.3 246.3 145.7 242.7 174.8 242C204 241.3 233 243.7 262 243C291 242.3 320 238.7 349 239.8C378 241 407 247 436.2 249.7C465.3 252.3 494.7 251.7 523.8 248.2C553 244.7 582 238.3 611 235C640 231.7 669 231.3 698 235.7C727 240 756 249 785.2 249.5C814.3 250 843.7 242 872.8 242.3C902 242.7 931 251.3 945.5 255.7L960 260L960 301L945.5 301C931 301 902 301 872.8 301C843.7 301 814.3 301 785.2 301C756 301 727 301 698 301C669 301 640 301 611 301C582 301 553 301 523.8 301C494.7 301 465.3 301 436.2 301C407 301 378 301 349 301C320 301 291 301 262 301C233 301 204 301 174.8 301C145.7 301 116.3 301 87.2 301C58 301 29 301 14.5 301L0 301Z" fill="#d53867"></path><path d="M0 262L14.5 260.7C29 259.3 58 256.7 87.2 255.5C116.3 254.3 145.7 254.7 174.8 258.2C204 261.7 233 268.3 262 271.2C291 274 320 273 349 270.7C378 268.3 407 264.7 436.2 264.7C465.3 264.7 494.7 268.3 523.8 268.7C553 269 582 266 611 264C640 262 669 261 698 260.8C727 260.7 756 261.3 785.2 259.8C814.3 258.3 843.7 254.7 872.8 255.8C902 257 931 263 945.5 266L960 269L960 301L945.5 301C931 301 902 301 872.8 301C843.7 301 814.3 301 785.2 301C756 301 727 301 698 301C669 301 640 301 611 301C582 301 553 301 523.8 301C494.7 301 465.3 301 436.2 301C407 301 378 301 349 301C320 301 291 301 262 301C233 301 204 301 174.8 301C145.7 301 116.3 301 87.2 301C58 301 29 301 14.5 301L0 301Z" fill="#ce2e68"></path><path d="M0 275L14.5 274C29 273 58 271 87.2 271.2C116.3 271.3 145.7 273.7 174.8 275.5C204 277.3 233 278.7 262 279.7C291 280.7 320 281.3 349 281.5C378 281.7 407 281.3 436.2 280.3C465.3 279.3 494.7 277.7 523.8 275.7C553 273.7 582 271.3 611 271.2C640 271 669 273 698 275.3C727 277.7 756 280.3 785.2 282.2C814.3 284 843.7 285 872.8 284.3C902 283.7 931 281.3 945.5 280.2L960 279L960 301L945.5 301C931 301 902 301 872.8 301C843.7 301 814.3 301 785.2 301C756 301 727 301 698 301C669 301 640 301 611 301C582 301 553 301 523.8 301C494.7 301 465.3 301 436.2 301C407 301 378 301 349 301C320 301 291 301 262 301C233 301 204 301 174.8 301C145.7 301 116.3 301 87.2 301C58 301 29 301 14.5 301L0 301Z" fill="#c62368"></path></svg>