<svg id="visual" viewBox="0 0 960 300" width="960" height="300" xmlns="http://www.w3.org/2000/svg" xmlns:xlink="http://www.w3.org/1999/xlink" version="1.1"><rect x="0" y="0" width="960" height="300" fill="#000a11"></rect><path d="M0 126L137 174L274 147L411 138L549 103L686 139L823 151L960 151L960 0L823 0L686 0L549 0L411 0L274 0L137 0L0 0Z" fill="#fa7268"></path><path d="M0 95L137 81L274 120L411 111L549 88L686 161L823 85L960 86L960 0L823 0L686 0L549 0L411 0L274 0L137 0L0 0Z" fill="#f36567"></path><path d="M0 111L137 93L274 121L411 100L549 69L686 80L823 69L960 113L960 0L823 0L686 0L549 0L411 0L274 0L137 0L0 0Z" fill="#eb5967"></path><path d="M0 55L137 58L274 71L411 110L549 57L686 51L823 100L960 48L960 0L823 0L686 0L549 0L411 0L274 0L137 0L0 0Z" fill="#e34c67"></path><path d="M0 69L137 46L274 82L411 41L549 57L686 78L823 71L960 82L960 0L823 0L686 0L549 0L411 0L274 0L137 0L0 0Z" fill="#da3f67"></path><path d="M0 56L137 67L274 63L411 50L549 47L686 38L823 52L960 40L960 0L823 0L686 0L549 0L411 0L274 0L137 0L0 0Z" fill="#d03267"></path><path d="M0 17L137 20L274 20L411 9L549 19L686 26L823 26L960 21L960 0L823 0L686 0L549 0L411 0L274 0L137 0L0 0Z" fill="#c62368"></path></svg>