<svg id="visual" viewBox="0 0 960 300" width="960" height="300" xmlns="http://www.w3.org/2000/svg" xmlns:xlink="http://www.w3.org/1999/xlink" version="1.1"><rect x="0" y="0" width="960" height="300" fill="#000a11"></rect><path d="M0 129L22.8 132.7C45.7 136.3 91.3 143.7 137 142.2C182.7 140.7 228.3 130.3 274 133.7C319.7 137 365.3 154 411.2 161C457 168 503 165 548.8 153.7C594.7 142.3 640.3 122.7 686 112.2C731.7 101.7 777.3 100.3 823 99.8C868.7 99.3 914.3 99.7 937.2 99.8L960 100L960 0L937.2 0C914.3 0 868.7 0 823 0C777.3 0 731.7 0 686 0C640.3 0 594.7 0 548.8 0C503 0 457 0 411.2 0C365.3 0 319.7 0 274 0C228.3 0 182.7 0 137 0C91.3 0 45.7 0 22.8 0L0 0Z" fill="#fa7268"></path><path d="M0 107L22.8 111.7C45.7 116.3 91.3 125.7 137 126.3C182.7 127 228.3 119 274 112.8C319.7 106.7 365.3 102.3 411.2 99.8C457 97.3 503 96.7 548.8 104.8C594.7 113 640.3 130 686 134C731.7 138 777.3 129 823 126.5C868.7 124 914.3 128 937.2 130L960 132L960 0L937.2 0C914.3 0 868.7 0 823 0C777.3 0 731.7 0 686 0C640.3 0 594.7 0 548.8 0C503 0 457 0 411.2 0C365.3 0 319.7 0 274 0C228.3 0 182.7 0 137 0C91.3 0 45.7 0 22.8 0L0 0Z" fill="#f36567"></path><path d="M0 81L22.8 79.5C45.7 78 91.3 75 137 82C182.7 89 228.3 106 274 116.7C319.7 127.3 365.3 131.7 411.2 126C457 120.3 503 104.7 548.8 96C594.7 87.3 640.3 85.7 686 90.8C731.7 96 777.3 108 823 110.2C868.7 112.3 914.3 104.7 937.2 100.8L960 97L960 0L937.2 0C914.3 0 868.7 0 823 0C777.3 0 731.7 0 686 0C640.3 0 594.7 0 548.8 0C503 0 457 0 411.2 0C365.3 0 319.7 0 274 0C228.3 0 182.7 0 137 0C91.3 0 45.7 0 22.8 0L0 0Z" fill="#eb5967"></path><path d="M0 68L22.8 67.2C45.7 66.3 91.3 64.7 137 64.2C182.7 63.7 228.3 64.3 274 66.5C319.7 68.7 365.3 72.3 411.2 79.3C457 86.3 503 96.7 548.8 99.8C594.7 103 640.3 99 686 99.7C731.7 100.3 777.3 105.7 823 106C868.7 106.3 914.3 101.7 937.2 99.3L960 97L960 0L937.2 0C914.3 0 868.7 0 823 0C777.3 0 731.7 0 686 0C640.3 0 594.7 0 548.8 0C503 0 457 0 411.2 0C365.3 0 319.7 0 274 0C228.3 0 182.7 0 137 0C91.3 0 45.7 0 22.8 0L0 0Z" fill="#e34c67"></path><path d="M0 69L22.8 65.8C45.7 62.7 91.3 56.3 137 53.7C182.7 51 228.3 52 274 54.5C319.7 57 365.3 61 411.2 58.8C457 56.7 503 48.3 548.8 45.2C594.7 42 640.3 44 686 49.3C731.7 54.7 777.3 63.3 823 68.2C868.7 73 914.3 74 937.2 74.5L960 75L960 0L937.2 0C914.3 0 868.7 0 823 0C777.3 0 731.7 0 686 0C640.3 0 594.7 0 548.8 0C503 0 457 0 411.2 0C365.3 0 319.7 0 274 0C228.3 0 182.7 0 137 0C91.3 0 45.7 0 22.8 0L0 0Z" fill="#da3f67"></path><path d="M0 55L22.8 50C45.7 45 91.3 35 137 29.7C182.7 24.3 228.3 23.7 274 23.8C319.7 24 365.3 25 411.2 25.5C457 26 503 26 548.8 26.8C594.7 27.7 640.3 29.3 686 28.8C731.7 28.3 777.3 25.7 823 28.8C868.7 32 914.3 41 937.2 45.5L960 50L960 0L937.2 0C914.3 0 868.7 0 823 0C777.3 0 731.7 0 686 0C640.3 0 594.7 0 548.8 0C503 0 457 0 411.2 0C365.3 0 319.7 0 274 0C228.3 0 182.7 0 137 0C91.3 0 45.7 0 22.8 0L0 0Z" fill="#d03267"></path><path d="M0 42L22.8 38.2C45.7 34.3 91.3 26.7 137 26C182.7 25.3 228.3 31.7 274 33.5C319.7 35.3 365.3 32.7 411.2 31.3C457 30 503 30 548.8 28.8C594.7 27.7 640.3 25.3 686 26.5C731.7 27.7 777.3 32.3 823 30.5C868.7 28.7 914.3 20.3 937.2 16.2L960 12L960 0L937.2 0C914.3 0 868.7 0 823 0C777.3 0 731.7 0 686 0C640.3 0 594.7 0 548.8 0C503 0 457 0 411.2 0C365.3 0 319.7 0 274 0C228.3 0 182.7 0 137 0C91.3 0 45.7 0 22.8 0L0 0Z" fill="#c62368"></path></svg>